HIERARCHY
ROOT SpineBase
{
  OFFSET 0.000000 0.000000 0.000000
  CHANNELS 6 Xposition Yposition Zposition Zrotation Xrotation Yrotation
  JOINT SpineMid
  {
    OFFSET 0.000000 24.810711 -0.000000
    CHANNELS 3 Zrotation Xrotation Yrotation
    JOINT SpineShoulder
    {
      OFFSET -0.127888 18.541768 -0.793533
      CHANNELS 3 Zrotation Xrotation Yrotation
      JOINT Neck
      {
        OFFSET 0.013621 6.174882 -0.487145
        CHANNELS 3 Zrotation Xrotation Yrotation
        JOINT Head
        {
          OFFSET 1.557176 14.822863 -2.638291
          CHANNELS 3 Zrotation Xrotation Yrotation
          End Site
          {
            OFFSET 0 0 0
          }
        }
      }
      JOINT ShoulderLeft
      {
        OFFSET -9.549876 -0.533904 -7.737167
        CHANNELS 3 Zrotation Xrotation Yrotation
        JOINT ElbowLeft
        {
          OFFSET -0.746053 -18.444463 -9.549897
          CHANNELS 3 Zrotation Xrotation Yrotation
          JOINT WristLeft
          {
            OFFSET 11.829509 -14.137948 -8.158639
            CHANNELS 3 Zrotation Xrotation Yrotation
            JOINT HandLeft
            {
              OFFSET 2.632524 -6.096692 -2.611538
              CHANNELS 3 Zrotation Xrotation Yrotation
              JOINT HandTipLeft
              {
                OFFSET 5.039616 -2.062039 -7.650715
                CHANNELS 3 Zrotation Xrotation Yrotation
                End Site
                {
                  OFFSET 0 0 0
                }
              }
              JOINT ThumbLeft
              {
                OFFSET -5.152322 -4.199022 2.036655
                CHANNELS 3 Zrotation Xrotation Yrotation
                End Site
                {
                  OFFSET 0 0 0
                }
              }
            }
          }
        }
      }
      JOINT ShoulderRight
      {
        OFFSET 14.834653 -1.812127 9.479997
        CHANNELS 3 Zrotation Xrotation Yrotation
        JOINT ElbowRight
        {
          OFFSET 8.743563 -24.646946 2.204594
          CHANNELS 3 Zrotation Xrotation Yrotation
          JOINT WristRight
          {
            OFFSET 12.133913 -14.251584 -18.703636
            CHANNELS 3 Zrotation Xrotation Yrotation
            JOINT HandRight
            {
              OFFSET 2.312232 -5.291034 -3.028726
              CHANNELS 3 Zrotation Xrotation Yrotation
              JOINT HandTipRight
              {
                OFFSET 2.787972 -4.625576 -2.103541
                CHANNELS 3 Zrotation Xrotation Yrotation
                End Site
                {
                  OFFSET 0 0 0
                }
              }
              JOINT ThumbRight
              {
                OFFSET -3.249132 -1.380994 -0.870748
                CHANNELS 3 Zrotation Xrotation Yrotation
                End Site
                {
                  OFFSET 0 0 0
                }
              }
            }
          }
        }
      }
    }
  }
  JOINT HipLeft
  {
    OFFSET -5.431234 1.865721 -6.110281
    CHANNELS 3 Zrotation Xrotation Yrotation
    JOINT KneeLeft
    {
      OFFSET 17.260971 -2.481169 -27.559631
      CHANNELS 3 Zrotation Xrotation Yrotation
      JOINT AnkleLeft
      {
        OFFSET 8.424499 -32.908001 -0.797531
        CHANNELS 3 Zrotation Xrotation Yrotation
        JOINT FootLeft
        {
          OFFSET 6.237536 -4.100324 -8.089955
          CHANNELS 3 Zrotation Xrotation Yrotation
          End Site
          {
            OFFSET 0 0 0
          }
        }
      }
    }
  }
  JOINT HipRight
  {
    OFFSET 5.989727 0.250010 0.747103
    CHANNELS 3 Zrotation Xrotation Yrotation
    JOINT KneeRight
    {
      OFFSET 32.834505 -1.126294 -7.848208
      CHANNELS 3 Zrotation Xrotation Yrotation
      JOINT AnkleRight
      {
        OFFSET 5.743499 -29.877307 -7.415201
        CHANNELS 3 Zrotation Xrotation Yrotation
        JOINT FootRight
        {
          OFFSET 6.049976 -2.684779 -10.511226
          CHANNELS 3 Zrotation Xrotation Yrotation
          End Site
          {
            OFFSET 0 0 0
          }
        }
      }
    }
  }
}
MOTION
Frames: 7
Frame Time: 0.033333
-34.241037 40.341406 329.484542 1.483723 -1.567114 -20.991756 -1.056516 1.267393 21.051476 -0.951597 0.005981 -0.040638 7.880906 3.272154 0.846034 0.000000 0.000000 0.000000 21.348247 57.142931 -19.787229 97.670713 10.348208 16.656550 32.077689 17.757276 -22.314069 -45.627318 13.064926 -42.279907 0.000000 0.000000 0.000000 0.000000 0.000000 0.000000 73.584045 -20.130003 12.178300 -150.336474 32.983202 134.626528 51.265113 24.365597 -1.406227 -17.020085 -1.151043 4.352829 0.000000 0.000000 0.000000 0.000000 0.000000 0.000000 -2.385918 -0.649087 23.102302 -0.179642 0.995948 -2.116220 -4.709600 -6.747767 0.761942 0.000000 0.000000 0.000000 -5.316758 -1.384461 21.623502 3.986390 0.908807 -0.640603 -0.438492 -1.123718 -0.860282 0.000000 0.000000 0.000000
-34.111161 40.207217 329.617350 2.273405 -1.533717 -20.522639 -0.645469 1.495103 20.624799 -0.758144 0.021368 0.017618 7.425022 3.056299 0.915306 0.000000 0.000000 0.000000 26.588214 51.185135 -24.494075 86.606724 8.411396 14.914806 21.977138 28.656170 -25.991620 -36.369541 12.772067 -32.202788 0.000000 0.000000 0.000000 0.000000 0.000000 0.000000 79.150704 -7.110190 9.359435 -149.607850 43.564497 118.217470 16.123811 28.410152 -9.309814 1.880731 -1.139951 16.875864 0.000000 0.000000 0.000000 0.000000 0.000000 0.000000 -3.088783 -0.668657 22.944867 -0.251095 0.771987 -2.420109 -6.601110 -9.525681 -0.373224 0.000000 0.000000 0.000000 -5.921808 -1.558683 21.486377 3.833773 0.849992 -0.973050 -0.417352 -0.907399 -0.431021 0.000000 0.000000 0.000000
-33.945627 40.128141 329.816287 3.262737 -1.538036 -19.260970 -0.286831 1.706039 19.409873 -0.987182 0.136222 0.044228 6.511655 2.931817 0.871659 0.000000 0.000000 0.000000 28.068186 44.188292 -25.411554 75.312363 7.612842 11.845811 23.508702 15.804563 -14.578640 -40.095275 15.646110 -33.512215 0.000000 0.000000 0.000000 0.000000 0.000000 0.000000 82.515599 9.690081 3.164329 -133.774505 54.148173 88.654882 28.209530 20.272632 -9.435485 -17.261881 5.608665 7.335439 0.000000 0.000000 0.000000 0.000000 0.000000 0.000000 -4.017196 -0.645277 22.226691 -0.363164 0.529004 -2.955393 -9.307384 -13.106593 -1.502420 0.000000 0.000000 0.000000 -6.913858 -1.767324 20.485490 3.865772 0.838914 -1.237795 -0.000000 0.000000 0.000000 0.000000 0.000000 0.000000
-33.837844 40.054307 330.113441 4.229354 -1.626580 -17.577347 0.019116 1.899872 17.769667 -1.019630 0.273287 0.080911 4.791085 3.287842 0.618224 0.000000 0.000000 0.000000 29.314094 36.357126 -25.890273 68.395545 5.358425 7.287881 18.654935 12.220261 -9.724055 -37.857223 5.625627 -37.070156 0.000000 0.000000 0.000000 0.000000 0.000000 0.000000 84.166198 28.329277 -5.610100 -103.757347 50.669745 45.774595 30.130943 17.191321 -10.973793 -12.422613 9.492930 13.799497 0.000000 0.000000 0.000000 0.000000 0.000000 0.000000 -4.944750 -0.392368 21.140340 -0.648101 0.191494 -3.547571 -12.562489 -17.723676 -4.654924 0.000000 0.000000 0.000000 -7.820296 -1.717602 19.012578 3.765446 0.802612 -1.432551 -0.000000 0.000000 0.000000 0.000000 0.000000 0.000000
-33.751189 39.998206 330.043608 5.166099 -1.179468 -14.967285 0.319790 1.769385 15.191407 -0.862079 0.299090 0.125152 2.081540 3.770570 0.179945 0.000000 0.000000 0.000000 28.481603 30.600661 -25.072590 61.790378 1.674642 4.892320 22.130490 13.771425 -11.372649 -42.834720 1.355774 -35.700972 0.000000 0.000000 0.000000 0.000000 0.000000 0.000000 87.573313 47.060026 -17.256172 -85.531416 35.050870 12.230355 39.243440 12.310955 -12.524637 -2.281203 23.583328 24.371328 0.000000 0.000000 0.000000 0.000000 0.000000 0.000000 -5.698574 -0.533032 18.974597 -0.735074 -0.040172 -4.015371 -10.441721 -15.396353 -4.273936 0.000000 0.000000 0.000000 -8.503857 -1.933481 15.650693 3.558273 0.803090 -0.723981 -0.000000 0.000000 0.000000 0.000000 0.000000 0.000000
-33.783853 39.989643 329.695731 5.755669 -0.705832 -13.920275 0.337980 2.007252 14.140312 -0.563183 0.120225 0.170353 -0.871967 4.321007 -0.354176 0.000000 0.000000 0.000000 27.335733 23.656609 -23.422604 54.047263 -0.183090 1.415093 24.460851 15.626525 -12.886196 -46.709116 -2.165447 -33.119522 0.000000 0.000000 0.000000 0.000000 0.000000 0.000000 82.011751 56.436675 -20.296019 -70.850326 20.300359 -5.503762 31.866533 9.683686 -13.452246 25.211524 30.179937 23.820148 0.000000 0.000000 0.000000 0.000000 0.000000 0.000000 -5.924755 -0.151679 18.034922 -1.082120 -0.439859 -4.084352 -5.473778 -10.020159 -3.886295 0.000000 0.000000 0.000000 -7.755932 -1.737885 13.661382 2.187853 0.534608 0.206382 -1.586226 -3.307403 -1.507588 0.000000 0.000000 0.000000
-33.704789 40.044590 330.543906 6.219592 -1.570881 -14.789926 -0.198086 2.037022 15.048118 -0.253921 0.391271 0.189345 -1.786522 5.739837 -0.632795 0.000000 0.000000 0.000000 26.186251 18.088801 -21.769639 45.893889 -1.379151 -1.542501 27.359252 16.118288 -13.758878 -46.197692 -7.095783 -34.870125 0.000000 0.000000 0.000000 0.000000 0.000000 0.000000 71.439273 59.649700 -16.858645 -58.172837 8.486078 -13.384119 15.167782 11.155869 -11.016976 56.546489 23.547934 17.382447 0.000000 0.000000 0.000000 0.000000 0.000000 0.000000 -6.646805 0.492645 19.722905 -0.820168 -0.477902 -4.822010 -2.022736 -4.486649 -1.361568 0.000000 0.000000 0.000000 -8.837017 -1.365524 16.173010 2.686943 0.563508 -1.345611 0.808210 0.122363 -2.831977 0.000000 0.000000 0.000000
